<svg xmlns="http://www.w3.org/2000/svg" width="400" height="340"><linearGradient id="grad1" x1="0%" y1="0%" x2="100%" y2="0%"><stop offset="0%" style="stop-color:#00FFFF;stop-opacity:1" /><stop offset="100%" style="stop-color:#00BFFF;stop-opacity:1" /></linearGradient><path fill="url(#grad1)" d="M327.56820393780595,281.7045534533009C323.4276513484216,300.8747577384217,306.9745811947141,328.72233120804674,289.39341967672675,335.02122571072493C271.8122581587394,341.32012021340313,241.99027711224585,321.06283509710653,222.0812348298817,319.49792046937023C202.17219254751757,317.9330058416339,188.36992933539537,327.67033319090893,169.9391659825419,325.6317379443071C151.50840262968845,323.5931426977052,127.67904397580843,319.23735312951897,111.4966547127609,307.266348989759C95.31426544971337,295.2953448499991,77.29621130996989,273.49375379853865,72.84483040425673,253.80571310574732C68.39344949854356,234.117672412956,76.09184562721688,207.31942224140346,84.78836927848195,189.13810483301117C93.48489292974702,170.95678742461888,110.56262336843442,156.46870551850097,125.02397231184715,144.71780865539364C139.48532125525986,132.9669117922863,155.1389864916961,124.65568301284512,171.55646293895833,118.63272365436713C187.97393938622056,112.60976429588914,205.29797678879936,108.81494542604224,223.52883099542055,108.58005250452571C241.75968520204174,108.34515958300918,272.03360587815337,104.51205769025398,280.94158817868555,117.22336612526797C289.84957047921773,129.93467456028196,271.42753362622244,167.71846413548766,276.97672479861365,184.84790311460966C282.52591597100485,201.97734209373166,305.8048220231675,203.85722494355147,314.2367352130329,220C322.66864840289827,236.14277505644853,331.7087565271903,262.5343491681801,327.56820393780595,281.7045534533009" stroke="none" stroke-width="3"/></svg>