<svg xmlns="http://www.w3.org/2000/svg" width="400" height="340"><linearGradient id="grad1" x1="0%" y1="0%" x2="100%" y2="0%"><stop offset="0%" style="stop-color:#00FFFF;stop-opacity:1" /><stop offset="100%" style="stop-color:#00BFFF;stop-opacity:1" /></linearGradient><path fill="url(#grad1)" d="M297.9667293706546,262.362544164418C283.6105347766662,273.60393807369223,275.2543780285349,280.5104967484577,263.7882749795455,287.4483634556452C252.32217193055612,294.38623016283276,241.84723780811828,298.9659888104477,229.1701110767183,303.9897444075432C216.49298434531835,309.0135000046387,201.12882920000226,318.7883893532197,187.72551459114567,317.59089703821826C174.32219998228908,316.3934047232168,155.46052380182334,308.0506252071832,148.7502234235787,296.80479051753446C142.03992304533404,285.5589558278857,152.6356083486615,262.916687319915,147.46371232167783,250.11588890032596C142.29181629469417,237.31509048073687,129.37201223687978,235.65049811427662,117.71884726167677,220C106.06568228647374,204.34950188572338,74.18407886692418,171.28493733475472,77.5447224704597,156.21290021466623C80.90536607399522,141.14086309457775,118.35279970310131,130.09121917008477,137.88270888288994,129.5677772794692C157.41261806267858,129.04433538885363,179.2003182515749,153.3536004401406,194.72417754919155,153.0722488709728C210.2480368468082,152.790897301805,220.23507087073966,127.0637241976098,231.0258646685897,127.87966786446226C241.81665846643972,128.6956115313147,244.2280148201281,151.64175220569746,259.46894033629167,157.96791087208754C274.7098658524552,164.29406953847763,307.39533406437374,155.49793834148406,322.47141776557106,165.8366198628028C337.5475014667684,176.17530138412152,354.00955727596175,203.9123459497308,349.9254425434757,220C345.84132781098964,236.0876540502692,312.322923964643,251.12115025514382,297.9667293706546,262.362544164418" stroke="none" stroke-width="3"/></svg>