<svg xmlns="http://www.w3.org/2000/svg" width="400" height="340"><linearGradient id="grad1" x1="0%" y1="0%" x2="100%" y2="0%"><stop offset="0%" style="stop-color:#00FFFF;stop-opacity:1" /><stop offset="100%" style="stop-color:#00BFFF;stop-opacity:1" /></linearGradient><path fill="url(#grad1)" d="M323.46972945941224,274.64414171060986C311.02367345626897,288.634081496781,292.36409475898347,297.76877149991304,276.93962814923196,303.93963871702675C261.51516153948046,310.11050593414046,245.66794187167966,309.93744482648805,230.92292980090318,311.6693450132922C216.1779177301267,313.4012452000963,199.27429045786386,320.43330921189266,188.46955572457313,314.33103983785156C177.6648209912824,308.22877046381046,175.74631730577426,284.401422892665,166.0945214011588,275.0557287690456C156.44272549654335,265.71003464542616,137.50525403025057,267.4328298909759,130.55878029688046,258.25687509613493C123.61230656351033,249.08092030129401,131.83105545039658,236.32334878567397,124.41567900093804,220C117.00030255147949,203.67665121432603,85.41972119039055,177.39227766499775,86.06652160012919,160.31678238209116C86.71332200986784,143.24128709918458,110.76278535881089,121.27769125526396,128.2964814593699,117.54702830256053C145.83017755992887,113.81636534985711,173.91740508508445,137.21720768135265,191.26869820348318,137.9328046658706C208.6199913218819,138.64840165038856,221.82285251837425,117.51666649865085,232.40424016976232,121.84061020966823C242.9856278211504,126.1645539206856,243.4157587037018,154.77645310252936,254.7570241118116,163.8764669319749C266.09828951992137,172.97648076142045,284.30867594237435,167.0867710083373,300.451832618421,176.4406931863415C316.59498929446767,185.79461536434567,347.7796480279265,203.6327585792886,351.6159641680917,220C355.4522803082569,236.3672414207114,335.9157854625555,260.6542019244387,323.46972945941224,274.64414171060986" stroke="none" stroke-width="3"/></svg>