<svg xmlns="http://www.w3.org/2000/svg" width="400" height="340"><linearGradient id="grad1" x1="0%" y1="0%" x2="100%" y2="0%"><stop offset="0%" style="stop-color:#00FFFF;stop-opacity:1" /><stop offset="100%" style="stop-color:#00BFFF;stop-opacity:1" /></linearGradient><path fill="url(#grad1)" d="M270.56166376491205,251.78521312598858C260.466816005101,268.5333526566513,287.6114854587247,310.59504357206976,279.36243614233877,320.4888371839763C271.11338682595283,330.3826307958828,237.93186733271847,313.9103693409678,221.0673678665963,311.14797479742765C204.20286840047413,308.3855802538875,194.23542774516383,306.512029598141,178.1754393456057,303.91446992273546C162.11545094604756,301.31691024732993,135.11587053804757,305.67557177480325,124.70743746924754,295.56261674499433C114.29900440044752,285.4496617151854,119.59148644023531,260.2873398140046,115.72484093280555,243.23673974388188C111.85819542537578,226.18613967375916,96.50900536001,206.62355318141834,101.50756442466897,193.25901632425794C106.50612348932795,179.89447946709754,134.58411917260386,176.91832252603075,145.7161953207594,163.04951860091955C156.84827146891493,149.18071467580836,155.23388775810434,119.92627662907005,168.30002131360212,110.04619277359073C181.3661548690999,100.16610891811142,206.95505072283498,100.23214889532537,224.11299665374594,103.76901546804366C241.2709425846569,107.30588204076196,261.7512011819733,118.11421890197829,271.24769689906793,131.2673922099005C280.7441926161626,144.4205655178227,269.64466665595756,167.89928735056034,281.0919709563138,182.68805531557692C292.53927525667,197.4768232805935,341.68657389977216,208.48380703159805,339.9315227012052,220C338.17647150263826,231.51619296840195,280.6565115247231,235.03707359532586,270.56166376491205,251.78521312598858" stroke="none" stroke-width="3"/></svg>