<svg xmlns="http://www.w3.org/2000/svg" width="400" height="340"><linearGradient id="grad1" x1="0%" y1="0%" x2="100%" y2="0%"><stop offset="0%" style="stop-color:#00FFFF;stop-opacity:1" /><stop offset="100%" style="stop-color:#00BFFF;stop-opacity:1" /></linearGradient><path fill="url(#grad1)" d="M300.5171762375969,263.59077464215466C288.93742764858735,276.30806453382155,281.51412018086427,284.193604938995,270.8502016038451,296.30373935000125C260.18628302682595,308.4138737610075,250.98460741413282,330.0888465748135,236.53366477548207,336.251581108192C222.0827221368313,342.4143156415705,198.77295869487068,339.85732100021266,184.1445457719405,333.2801465502722C169.51613284901032,326.70297210033175,167.41796221972453,304.60967093045406,148.763187237901,296.7885344085494C130.1084122560775,288.9673978866448,73.39572484439422,299.1514164869361,72.2158958809994,286.3533274188446C71.03606691760457,273.55523835075303,135.168236791871,238.97984682735705,141.68421345753205,220C148.2001901231931,201.02015317264295,114.4573372842381,190.69622857423337,111.31175587496571,172.4742464547023C108.16617446569333,154.25226433517122,109.85672494122933,118.05554057516791,122.81072500189781,110.66810728281348C135.7647250625663,103.28067399045905,169.13251172247104,133.46261425634782,189.0357562389766,128.14964670057572C208.93900075548217,122.83667914480361,228.93254960524504,75.7752376413826,242.23019210093116,78.79030194818085C255.52783459661728,81.8053662549791,252.5583984208642,133.1239071129154,268.8216112130933,146.24003254136522C285.08482400532245,159.35615796981506,327.8916218668378,145.19372660910733,339.809468854306,157.4870545188798C351.72731584177416,169.78038242865227,346.87740857402076,202.31604664612087,340.3286931379026,220C333.7799777017844,237.68395335387913,312.0969248266065,250.8734847504878,300.5171762375969,263.59077464215466" stroke="none" stroke-width="3"/></svg>