<svg xmlns="http://www.w3.org/2000/svg" width="400" height="340"><linearGradient id="grad1" x1="0%" y1="0%" x2="100%" y2="0%"><stop offset="0%" style="stop-color:#00FFFF;stop-opacity:1" /><stop offset="100%" style="stop-color:#00BFFF;stop-opacity:1" /></linearGradient><path fill="url(#grad1)" d="M323.26651129278656,274.5462769994823C320.7753063048244,289.47002266331276,297.63415784277845,307.0172659606509,281.40774017612387,309.54247398298287C265.1813225094693,312.06768200531485,241.42662541635485,288.7727121307002,225.90800529285895,289.69752513347413C210.38938516936304,290.62233813624806,203.17856738036716,311.3701492899668,188.2960194351485,315.09135199962657C173.41347148992986,318.81255470928636,143.64089691144756,322.7466929344052,136.61271762154712,312.02474139143294C129.58453833164668,301.3027898484607,156.74422218230163,266.0970996403651,146.12694369574598,250.75964274179296C135.50966520919033,235.4221858432208,79.14502381999783,233.25630255065397,72.90904670221317,220.00000000000003C66.67306958442852,206.7436974493461,94.93025744365067,182.59232430625778,108.71108098903801,171.22182743786936C122.49190453442534,159.85133056948095,142.83250626364622,161.69824377535355,155.59398797453719,151.77701878966957C168.35546968542815,141.8557938039856,171.28716071852529,121.90243707393462,185.27997125438375,111.69447752376553C199.27278179024222,101.48651797359643,228.4486480695676,81.23374085044117,239.55085118968793,90.52926148865501C250.65305430980825,99.82478212686885,243.13607607003186,152.47817204136652,251.8931899751057,167.46760135304862C260.6503038801796,182.45703066473072,284.68323793199926,171.7104375842558,292.0935346201311,180.4658373587477C299.50383130826293,189.2212371332396,291.15947399178754,204.31992672654422,296.3549701038968,220C301.55046621600604,235.68007327345578,325.7577162807487,259.62253133565184,323.26651129278656,274.5462769994823" stroke="none" stroke-width="3"/></svg>