<svg xmlns="http://www.w3.org/2000/svg" width="400" height="340"><linearGradient id="grad1" x1="0%" y1="0%" x2="100%" y2="0%"><stop offset="0%" style="stop-color:#00FFFF;stop-opacity:1" /><stop offset="100%" style="stop-color:#00BFFF;stop-opacity:1" /></linearGradient><path fill="url(#grad1)" d="M308.7918063293169,267.575626474348C297.0280004473762,285.1759815422673,308.12124226297226,322.319919502107,294.2148888092834,325.6021304075161C280.3085353555946,328.8843413129252,242.01569492692445,293.3631369962868,225.35368560718405,287.2688919068025C208.69167628744364,281.17464681731815,212.37949625357675,280.7143041387247,194.24283289084093,289.03665987061004C176.1061695281051,297.3590156024954,137.3241522168243,337.43227616670356,116.53370543076906,337.2030262981146C95.74325864471383,336.9737764295256,79.26233527795596,307.1949983754288,69.50015217450954,287.66116065907636C59.73796907106312,268.12732294272394,50.70745137456722,239.06078465567825,57.96060681009055,220.00000000000003C65.21376224561389,200.9392153443218,101.3614092447477,190.4534181019429,113.01908478764955,173.2964527250071C124.67676033055139,156.1394873480713,114.36840191961117,120.77615735499761,127.90666006750162,117.05820773838524C141.44491821539205,113.34025812177286,175.8482766646545,154.50328398514057,194.2486336749922,150.98875502533286C212.6489906853299,147.47422606552516,227.2802360233635,95.00661285625651,238.30880212952783,95.97103397953903C249.33736823569217,96.93545510282155,247.2125422977257,144.73631186655734,260.4200303119782,156.77528176502798C273.62751832623076,168.81425166349862,300.15744791688485,157.66740033120084,317.55373021504306,168.20485337036283C334.9500125132013,178.74230640952482,366.2580447485486,203.43820448266914,364.7977241009276,220C363.3374034533066,236.56179551733086,320.5556122112576,249.97527140642865,308.7918063293169,267.575626474348" stroke="none" stroke-width="3"/></svg>